<svg xmlns="http://www.w3.org/2000/svg" xmlns:xlink="http://www.w3.org/1999/xlink" width="480" height="72" viewBox="0 0 480 72">
  <defs>
    <clipPath id="clip-Web_1920_1">
      <rect width="480" height="72"/>
    </clipPath>
  </defs>
  <g id="Web_1920_1" data-name="Web 1920 – 1" clip-path="url(#clip-Web_1920_1)">
    <path id="Path_1" data-name="Path 1" d="M15.209-34.11v-.083a.565.565,0,0,0-.562-.583.563.563,0,0,0-.541.458l-.729,1.854c-5.373.354-10.726.875-16.1,1.27a8.274,8.274,0,0,0-1.562-.854,6.634,6.634,0,0,0-2.562-.562,5.807,5.807,0,0,0-1.208.146,4.513,4.513,0,0,0-1.854.958.783.783,0,0,0-.312.541.52.52,0,0,0,.167.4c.333.4,2,.646,4.436.646.854,0,1.791-.042,2.791-.1C2.5-26.175,4.463-20.2,4.463-14.012a33,33,0,0,1-.333,4.519L-1.827,5.294a.739.739,0,0,0-.125.333c0,.208.167.292.354.292a.634.634,0,0,0,.5-.229A34.115,34.115,0,0,0,5.358-9.16l9.018-22.409c10.58-.583,16.682-1.02,20.493-1.02a17.334,17.334,0,0,1,4.29.375c.979.271,1.458.9,1.458,1.4a.459.459,0,0,1-.021.167.977.977,0,0,0,.771.4c.187,0,.333-.083.333-.292v-.021a1.349,1.349,0,0,0,.042-.4c0-.875-.812-1.458-2.208-1.833a27.656,27.656,0,0,0-6.331-.5c-3.895,0-9.684.25-18.6.75ZM1.276-.163,2.734-3.786C2.276-2.474,1.776-1.246,1.276-.163ZM8.753-19.885,5.192-12.179c.021-.437.021-.875.021-1.312,0-6.31-1.749-12.288-6.81-16.619,4.873-.354,9.663-.9,14.5-1.25ZM-4.18-31.09c-1.562.1-2.832.167-3.749.167a5.965,5.965,0,0,1-1.25-.083,3.368,3.368,0,0,1,1.312-.646,3.984,3.984,0,0,1,1-.125,5.9,5.9,0,0,1,2.27.5C-4.472-31.215-4.326-31.152-4.18-31.09ZM20.541-14.075l.062.187a.555.555,0,0,0,.25.062.829.829,0,0,0,.666-.4V-14.3a1.966,1.966,0,0,0-.083-.625c.479-.458.791-.75.791-.75v.021c0,.167-.271.9-.4,1.687a6.107,6.107,0,0,0-.208,1.479c0,1.562.937,2.124,2.27,2.124,3.249,0,8.83-3.27,9.08-3.624a.571.571,0,0,0,.146-.375c0-.229-.125-.4-.312-.4-.125,0-.271.083-.4.333-.729.916-5.644,3.707-8.289,3.707-1.02,0-1.708-.4-1.708-1.479a4.677,4.677,0,0,1,.333-1.562,6.179,6.179,0,0,0,.521-2.1c0-.458-.146-.729-.417-.771a.392.392,0,0,0-.167-.042,4.128,4.128,0,0,0-1.749,1.041,1.97,1.97,0,0,0-1.437-.521,3.872,3.872,0,0,0-1.125.167,6.261,6.261,0,0,0-3.5,3.374A3.759,3.759,0,0,0,14.5-11.45a1.576,1.576,0,0,0-.021.312,1.149,1.149,0,0,0,.229.75.926.926,0,0,0,.541.333.9.9,0,0,1,.1.021c.9,0,2.77-1.749,4.415-3.311C20.124-13.679,20.249-13.783,20.541-14.075Zm-.791-.541c-1.312,1.749-2.562,2.749-2.957,2.749-.083,0-.125-.042-.125-.1,0-.479,1.749-2.749,2.749-2.749A.49.49,0,0,1,19.749-14.616Zm18.6-10.913c.062-.187,3.77-7.747,4.082-7.747a.073.073,0,0,1,.021.042,3.447,3.447,0,0,1-.187.687A39.531,39.531,0,0,1,38.347-25.529ZM22.54-22.634c0-.479-.479-.6-.791-.6h-.125c-.271,0-.729.1-.729.375a.3.3,0,0,0,.042.125c.125.312,1.833.417,4.207.417,3.041,0,7.164-.146,10.538-.167C32.807-15.637,30.225-7.41,30.225-2.453c0,2.187.5,3.749,1.708,4.269a.264.264,0,0,0,.125.021.476.476,0,0,0,.417-.479A.349.349,0,0,0,32.12,1c-1.166-.1-1.645-1.25-1.645-2.957,0-5.811,5.332-18.327,7.018-20.681,4.832-.4,14.578-.812,14.578-.812a.555.555,0,0,0-.062.25.534.534,0,0,0,.521.541.555.555,0,0,0,.25-.062s1.729-.562,1.729-1.312a.6.6,0,0,0-.125-.333.947.947,0,0,0-.292-.021c-2.083,0-14.454,1.1-16.286,1.229,1.5-2.062,5.581-7.727,5.581-10.1a.939.939,0,0,0-.562-1h-.042c-1.312,0-4.144,4.853-6.852,11.184-4.644.375-8.206.521-10.642.521C24.123-22.551,23.186-22.572,22.54-22.634Zm17.536,7.227a.577.577,0,0,0,.021-.187.833.833,0,0,0-.875-.75.816.816,0,0,0-.771.5,9.265,9.265,0,0,0-1.083,3.874A2.1,2.1,0,0,0,38.16-10.1a1.431,1.431,0,0,0,1.1.312c3.478,0,13.079-4.186,13.1-4.186A.153.153,0,0,0,52.4-14.1a.627.627,0,0,0-.646-.5.733.733,0,0,0-.458.167s-9.226,3.978-11.663,3.978a.781.781,0,0,1-.479-.1,1.093,1.093,0,0,1-.417-.979A11.143,11.143,0,0,1,40.076-15.407Zm.75-4.873a.459.459,0,0,0-.167-.021,1.027,1.027,0,0,0-.854.729,1.088,1.088,0,0,0-.083.437.763.763,0,0,0,.437.75.577.577,0,0,0,.187.021.98.98,0,0,0,.833-.729,1.088,1.088,0,0,0,.083-.437A.763.763,0,0,0,40.825-20.281Zm14.891,6.206.062.187a.555.555,0,0,0,.25.062.829.829,0,0,0,.666-.4V-14.3a1.966,1.966,0,0,0-.083-.625c.479-.458.791-.75.791-.75v.021c0,.167-.271.9-.4,1.687a6.106,6.106,0,0,0-.208,1.479c0,1.562.937,2.124,2.27,2.124,3.249,0,8.83-3.27,9.08-3.624a.571.571,0,0,0,.146-.375c0-.229-.125-.4-.312-.4-.125,0-.271.083-.4.333-.729.916-5.644,3.707-8.289,3.707-1.02,0-1.708-.4-1.708-1.479a4.677,4.677,0,0,1,.333-1.562,6.179,6.179,0,0,0,.521-2.1c0-.458-.146-.729-.417-.771a.392.392,0,0,0-.167-.042,4.128,4.128,0,0,0-1.749,1.041,1.97,1.97,0,0,0-1.437-.521,3.872,3.872,0,0,0-1.125.167,6.261,6.261,0,0,0-3.5,3.374,3.759,3.759,0,0,0-.375,1.166,1.576,1.576,0,0,0-.021.312,1.149,1.149,0,0,0,.229.75.926.926,0,0,0,.541.333.9.9,0,0,1,.1.021c.9,0,2.77-1.749,4.415-3.311C55.3-13.679,55.425-13.783,55.716-14.075Zm-.791-.541c-1.312,1.749-2.562,2.749-2.957,2.749-.083,0-.125-.042-.125-.1,0-.479,1.749-2.749,2.749-2.749A.49.49,0,0,1,54.925-14.616Zm14.912-2v-.042a.733.733,0,0,0-.75-.75.74.74,0,0,0-.729.6l-2.02,8.081v.083c0,.271.25.4.541.4a.96.96,0,0,0,.854-.417c.042-.437,3.1-4.728,4.165-4.728.125,0,.229.083.292.271.958,2.124,2.291,2.853,3.707,2.853,2.27,0,4.769-1.874,6.435-3.186a.308.308,0,0,0,.187-.271.425.425,0,0,0-.4-.4.328.328,0,0,0-.271.125c-2.228,1.624-4.186,3.02-5.831,3.02-1.27,0-2.374-.812-3.291-2.916-.271-.583-.625-.833-1.041-.833-.916,0-2.1,1.312-3.27,2.832Zm16.245,2.541.062.187a.555.555,0,0,0,.25.062.829.829,0,0,0,.666-.4V-14.3a1.966,1.966,0,0,0-.083-.625c.479-.458.791-.75.791-.75v.021c0,.167-.271.9-.4,1.687a6.107,6.107,0,0,0-.208,1.479c0,1.562.937,2.124,2.27,2.124,3.249,0,8.83-3.27,9.08-3.624a.571.571,0,0,0,.146-.375c0-.229-.125-.4-.312-.4-.125,0-.271.083-.4.333-.729.916-5.644,3.707-8.289,3.707-1.02,0-1.708-.4-1.708-1.479a4.677,4.677,0,0,1,.333-1.562,6.179,6.179,0,0,0,.521-2.1c0-.458-.146-.729-.417-.771a.392.392,0,0,0-.167-.042,4.128,4.128,0,0,0-1.749,1.041,1.97,1.97,0,0,0-1.437-.521,3.872,3.872,0,0,0-1.125.167,6.261,6.261,0,0,0-3.5,3.374,3.759,3.759,0,0,0-.375,1.166,1.576,1.576,0,0,0-.021.312,1.149,1.149,0,0,0,.229.75.926.926,0,0,0,.541.333.9.9,0,0,1,.1.021c.9,0,2.77-1.749,4.415-3.311C85.665-13.679,85.79-13.783,86.081-14.075Zm-.791-.541c-1.312,1.749-2.562,2.749-2.957,2.749-.083,0-.125-.042-.125-.1,0-.479,1.749-2.749,2.749-2.749A.49.49,0,0,1,85.29-14.616Zm17.827-8.122a.4.4,0,0,0-.062.208c0,.4.625.791,1.27.791a1.285,1.285,0,0,0,1.208-.729.741.741,0,0,1-.146-.521c0-2.374,4.936-10.455,13.954-10.455.354,0,.708.021,1.062.042,1.791,0,2.52,1.5,2.52,3.936,0,3.874-1.854,10.163-4.165,16.474-2.416.125-4.686.25-6.539.354a13.462,13.462,0,0,0-2.687-.375,4.891,4.891,0,0,0-.541.021c-.271.042-2.437.146-2.437.854,0,.167.1.333.354.562v.021a4.617,4.617,0,0,0,1.125.062c.833,0,2.083-.021,3.582-.083,2.52.4,3.853,1.645,3.853,3.874,0,.146-.021.271-.021.417-.271,4.207-3.624,11.163-5.6,15.266a.309.309,0,0,0-.042.187c0,.312.458.5.854.5a.7.7,0,0,0,.562-.208,215.051,215.051,0,0,0,8.289-20.493c5.29-.271,10.08-.354,15.287-.75-2.312,7.789-5.373,15.641-7.06,18.473a.524.524,0,0,0-.1.333.514.514,0,0,0,.541.479.683.683,0,0,0,.521-.25c1.749-2.937,4.436-11.2,6.789-19.2,1.1-.083,1.749-.146,1.749-.146a.765.765,0,0,0,.1-.333c0-.208-.167-.333-.646-.333h-.083c-.187,0-.479.021-.9.021,2.624-8.935,4.811-17.328,4.811-17.369,0-.062.021-.1.021-.146,0-.437-.375-.625-.75-.625a.761.761,0,0,0-.729.4,156.7,156.7,0,0,1-4.02,17.848c-5.082.187-10.142.312-15.224.583,2.166-6.165,3.874-12.246,3.874-16.328,0-3.02-.937-4.936-3.332-4.936C109.761-34.318,103.138-22.759,103.117-22.738ZM116.009-5.931c.042-.333.062-.646.083-.958.021-.437.042-.833.042-1.25,0-1.562-.292-2.853-1.312-3.645,1.208-.062,2.27-.125,3.6-.187C117.675-9.951,116.779-7.847,116.009-5.931ZM140.271-13.6c.958-1.25,1.354-2.02,1.77-2.083a.055.055,0,0,1,.062.062C142.1-15.428,141.6-14.741,140.271-13.6Zm3.082-2.249a.918.918,0,0,0-.541-.791.932.932,0,0,0-.417-.083,1.665,1.665,0,0,0-.833.25,4.414,4.414,0,0,0-1.166.979,4.953,4.953,0,0,0-1.27,3.082,3.164,3.164,0,0,0,.541,1.812,2.324,2.324,0,0,0,2.1.979c3.416,0,9.018-4.04,9.059-4.061A.39.39,0,0,0,151-13.97a.521.521,0,0,0-.5-.5.4.4,0,0,0-.25.083c-.021.021-5.769,4.353-8.643,4.353a1.458,1.458,0,0,1-1.312-.6,2.794,2.794,0,0,1-.333-1.458c0-.146.021-.292.021-.417.583-.229,3.395-1.354,3.395-3.1C143.375-15.7,143.354-15.762,143.354-15.845Zm8.58-.646v-.042c0-.375-.4-.6-.791-.6a.813.813,0,0,0-.812.541L148.56-9.18c0,.021-.021.042-.021.083,0,.208.417.354.791.354.312,0,.6-.1.6-.354v-.042c.021-.021,2.749-6.539,4.228-6.539a.536.536,0,0,1,.417.25c1.041,1.458,3.728,1.833,6,1.833a13.243,13.243,0,0,0,3.54-.354.47.47,0,0,0,.312-.4c0-.062-.042-.125-.167-.125a1.2,1.2,0,0,0-.208.042,1.32,1.32,0,0,1-.479.208c-.437.021-1.312.083-2.333.083-2.312,0-5.394-.312-6.165-2.02a1.443,1.443,0,0,0-1.166-.646c-1,0-2.187,1.1-3,2.832Zm14.2-.125v-.042a.733.733,0,0,0-.75-.75.74.74,0,0,0-.729.6l-2.02,8.081v.083c0,.271.25.4.542.4a.96.96,0,0,0,.854-.417c.042-.437,3.1-4.728,4.165-4.728.125,0,.229.083.292.271.958,2.124,2.291,2.853,3.707,2.853,2.27,0,4.769-1.874,6.435-3.186a.308.308,0,0,0,.187-.271.425.425,0,0,0-.4-.4.328.328,0,0,0-.271.125c-2.228,1.624-4.186,3.02-5.831,3.02-1.27,0-2.374-.812-3.291-2.916-.271-.583-.625-.833-1.041-.833-.916,0-2.1,1.312-3.27,2.832Zm16.245,2.541.062.187a.555.555,0,0,0,.25.062.829.829,0,0,0,.666-.4V-14.3a1.966,1.966,0,0,0-.083-.625c.479-.458.791-.75.791-.75v.021c0,.167-.271.9-.4,1.687a6.107,6.107,0,0,0-.208,1.479c0,1.562.937,2.124,2.27,2.124,3.249,0,8.83-3.27,9.08-3.624a.571.571,0,0,0,.146-.375c0-.229-.125-.4-.312-.4-.125,0-.271.083-.4.333-.729.916-5.644,3.707-8.289,3.707-1.02,0-1.708-.4-1.708-1.479a4.678,4.678,0,0,1,.333-1.562,6.179,6.179,0,0,0,.521-2.1c0-.458-.146-.729-.417-.771a.392.392,0,0,0-.167-.042,4.128,4.128,0,0,0-1.749,1.041,1.97,1.97,0,0,0-1.437-.521,3.872,3.872,0,0,0-1.125.167,6.261,6.261,0,0,0-3.5,3.374,3.759,3.759,0,0,0-.375,1.166,1.576,1.576,0,0,0-.021.312,1.149,1.149,0,0,0,.229.75.926.926,0,0,0,.542.333.9.9,0,0,1,.1.021c.9,0,2.77-1.749,4.415-3.311C181.966-13.679,182.091-13.783,182.382-14.075Zm-.791-.541c-1.312,1.749-2.562,2.749-2.957,2.749-.083,0-.125-.042-.125-.1,0-.479,1.749-2.749,2.749-2.749A.49.49,0,0,1,181.591-14.616Zm14.912-2v-.042a.733.733,0,0,0-.75-.75.74.74,0,0,0-.729.6L193-8.722v.083c0,.271.25.4.541.4a.96.96,0,0,0,.854-.417c.042-.437,3.1-4.728,4.165-4.728.125,0,.229.083.292.271.958,2.124,2.291,2.853,3.707,2.853,2.27,0,4.769-1.874,6.435-3.186a.308.308,0,0,0,.187-.271.425.425,0,0,0-.4-.4.328.328,0,0,0-.271.125c-2.228,1.624-4.186,3.02-5.831,3.02-1.27,0-2.374-.812-3.291-2.916-.271-.583-.625-.833-1.041-.833-.916,0-2.1,1.312-3.27,2.832Zm17.14,1.437s-.75.937-3.291,3.874c-.75.875-1.208,1.208-1.458,1.208-.187,0-.271-.167-.271-.437A6.353,6.353,0,0,1,209.5-13.1c.9-1.562,2.187-2.812,3.1-2.957.062,0,.125-.021.187-.021C213.559-16.074,213.643-15.178,213.643-15.178Zm2.187-2.791s2.1-6.894,3.832-9.622c0,0,1.145-1.874,1.645-1.916h.021c.1,0,.146.062.146.187a9.525,9.525,0,0,1-.771,2.1C220.307-26.279,217.621-21.072,215.83-17.969Zm-1.541,2.041a2.245,2.245,0,0,0-1.979-1.25,2.539,2.539,0,0,0-.771.1c-2,.541-3.27,2.853-3.853,4.957a5.183,5.183,0,0,0-.208,1.27c0,.979.437,1.6,1.125,1.6a1.636,1.636,0,0,0,.708-.187c1.4-.666,4.332-4.228,4.332-4.228-.812,1.749-2.791,8.226-2.791,12.433,0,.25,0,.5.021.75A5.726,5.726,0,0,0,212.018,2.4s.417.458.791.458a.42.42,0,0,0,.229-.062.35.35,0,0,0,.208-.312.517.517,0,0,0-.5-.458c-.375,0-1.354-.5-1.52-2.1a5.094,5.094,0,0,1-.021-.6,35.8,35.8,0,0,1,2.02-10.247l1.52-4.124S222.2-25.217,222.2-29.486v-.146a.264.264,0,0,0,.021-.125.654.654,0,0,0-.625-.646c-.479,0-1.208.479-2.208,2.145C217.329-24.8,215.934-20.593,214.288-15.928Zm5.352,2.333c.958-1.25,1.354-2.02,1.77-2.083a.055.055,0,0,1,.062.062C221.473-15.428,220.974-14.741,219.641-13.6Zm3.082-2.249a.918.918,0,0,0-.541-.791.932.932,0,0,0-.417-.083,1.665,1.665,0,0,0-.833.25,4.414,4.414,0,0,0-1.166.979,4.953,4.953,0,0,0-1.27,3.082,3.164,3.164,0,0,0,.541,1.812,2.324,2.324,0,0,0,2.1.979c3.416,0,9.018-4.04,9.059-4.061a.39.39,0,0,0,.167-.292.521.521,0,0,0-.5-.5.4.4,0,0,0-.25.083c-.021.021-5.769,4.353-8.643,4.353a1.458,1.458,0,0,1-1.312-.6,2.794,2.794,0,0,1-.333-1.458c0-.146.021-.292.021-.417.583-.229,3.395-1.354,3.395-3.1C222.744-15.7,222.723-15.762,222.723-15.845Zm5.332,2.687a.386.386,0,0,0-.042.146c0,.312.521.521,1.041.521a1.152,1.152,0,0,0,.812-.25c.292-.167.229-.812.625-1.312a9.615,9.615,0,0,1,3.311-2.5,4.736,4.736,0,0,1,1.6-.6c.146,0,.25.062.25.208a3.07,3.07,0,0,1-.791,1.375c-1.25,1.6-3.374,3.457-4.186,3.645-.021,0-.021.021-.021.042s.021.042.042.083a1.511,1.511,0,0,0-.521.437.538.538,0,0,0,.541.292.518.518,0,0,0,.167-.021,2.744,2.744,0,0,0,.4-.167.4.4,0,0,0,.25.083c.208-.021.479-.042.729-.042a6.81,6.81,0,0,1,1.1.1c.979.187,2.208.541,2.312,1.9-3.353,2.52-11,8.06-12.413,12.183a1.846,1.846,0,0,0-.125.625.921.921,0,0,0,.312.729,1.248,1.248,0,0,0,.541.1c.1,0,.187-.021.25-.021,3.27-.208,11.767-8.81,12-13,2.291-1.708,4.936-3.645,8.1-5.644a.336.336,0,0,0,.125-.271c0-.208-.146-.437-.354-.437a.336.336,0,0,0-.187.062q-4.436,2.843-7.747,5.29a2.976,2.976,0,0,0-2.666-2.333,2.539,2.539,0,0,0-.771-.1c.729-.583,4.082-3.52,4.082-5.144,0-.521-.312-.9-1.125-1.041a1.684,1.684,0,0,0-.333-.021C232.741-18.24,228.075-13.179,228.055-13.158ZM235.594-8.1c-.75,3.728-8.06,11.392-11.35,11.913a3.6,3.6,0,0,1,.125-.625C225.514-.142,232.928-6.077,235.594-8.1Z" transform="translate(226.534 53.964)" fill="#888"/>
  </g>
</svg>
